<mxfile host="app.diagrams.net" modified="2023-07-25T22:46:40.455Z" agent="Mozilla/5.0 (Windows NT 10.0; Win64; x64) AppleWebKit/537.36 (KHTML, like Gecko) Chrome/114.0.0.0 Safari/537.36" version="21.6.5" etag="pFobbj_hHGCDKERRSVB7" type="github">
  <diagram name="Страница 1" id="B_UW3wCBPt2bIYBBkRrj">
    <mxGraphModel>
      <root>
        <mxCell id="0" />
        <mxCell id="1" parent="0" />
      </root>
    </mxGraphModel>
  </diagram>
</mxfile>
